<mxfile host="drawio-plugin" modified="2023-10-08T04:40:19.333Z" agent="5.0 (Macintosh; Intel Mac OS X 10_15_7) AppleWebKit/537.36 (KHTML, like Gecko) Chrome/104.0.5112.102 Safari/537.36" version="20.5.3" etag="aCU2BtyR66vFJV7whC7G" type="embed"><diagram id="6oD0fPwMaGVgU34dlelX" name="Page-1"><mxGraphModel dx="1528" dy="443" grid="1" gridSize="10" guides="1" tooltips="1" connect="1" arrows="1" fold="1" page="1" pageScale="1" pageWidth="827" pageHeight="1169" math="0" shadow="0"><root><mxCell id="0"/><mxCell id="1" parent="0"/><mxCell id="8" style="edgeStyle=none;html=1;exitX=1;exitY=0.5;exitDx=0;exitDy=0;entryX=0;entryY=0.5;entryDx=0;entryDy=0;startSize=31;" parent="1" source="3" target="6" edge="1"><mxGeometry relative="1" as="geometry"/></mxCell><mxCell id="3" value="&amp;lt;Interface&amp;gt;&lt;br&gt;subject" style="swimlane;whiteSpace=wrap;html=1;startSize=31;" parent="1" vertex="1"><mxGeometry x="-790" y="130" width="160" height="90" as="geometry"><mxRectangle x="40" y="170" width="140" height="30" as="alternateBounds"/></mxGeometry></mxCell><mxCell id="4" value="&amp;nbsp; &amp;nbsp;registerObserver()&lt;br&gt;&amp;nbsp; &amp;nbsp;removeObserver()&lt;br&gt;notifyObserver()" style="text;html=1;align=center;verticalAlign=middle;resizable=0;points=[];autosize=1;strokeColor=none;fillColor=none;" parent="3" vertex="1"><mxGeometry x="-10" y="30" width="130" height="60" as="geometry"/></mxCell><mxCell id="6" value="&amp;lt;Interface&amp;gt;&lt;br&gt;Observer" style="swimlane;whiteSpace=wrap;html=1;startSize=34;strokeColor=#FFFFFF;fillColor=default;fontColor=#ffffff;gradientColor=none;" parent="1" vertex="1"><mxGeometry x="-493" y="140" width="123" height="70" as="geometry"><mxRectangle x="40" y="170" width="140" height="30" as="alternateBounds"/></mxGeometry></mxCell><mxCell id="7" value="update()" style="text;html=1;align=left;verticalAlign=middle;resizable=0;points=[];autosize=1;strokeColor=none;fillColor=none;" parent="6" vertex="1"><mxGeometry x="10" y="30" width="70" height="30" as="geometry"/></mxCell><mxCell id="10" value="observers" style="text;html=1;align=center;verticalAlign=middle;resizable=0;points=[];autosize=1;strokeColor=none;fillColor=none;" parent="1" vertex="1"><mxGeometry x="-605" y="140" width="80" height="30" as="geometry"/></mxCell><mxCell id="13" style="edgeStyle=none;html=1;exitX=0.5;exitY=1;exitDx=0;exitDy=0;startSize=31;" parent="1" source="11" edge="1"><mxGeometry relative="1" as="geometry"><mxPoint x="-729.9999999999999" y="499.7931034482758" as="targetPoint"/></mxGeometry></mxCell><mxCell id="11" value="WeatherData" style="swimlane;whiteSpace=wrap;html=1;strokeColor=#FFFFFF;startSize=31;fillColor=default;gradientColor=none;" parent="1" vertex="1"><mxGeometry x="-790" y="300" width="170" height="200" as="geometry"/></mxCell><mxCell id="16" value="registerObserver()&lt;br&gt;removeObserver()&lt;br&gt;notifyObserver()" style="text;html=1;align=left;verticalAlign=middle;resizable=0;points=[];autosize=1;strokeColor=none;fillColor=none;" parent="11" vertex="1"><mxGeometry x="10" y="40" width="120" height="60" as="geometry"/></mxCell><mxCell id="17" value="getTemperature()&lt;br&gt;getHumidity()&lt;br&gt;getPressure()&lt;br&gt;measurementsChanged()" style="text;html=1;align=left;verticalAlign=middle;resizable=0;points=[];autosize=1;strokeColor=none;fillColor=none;" parent="11" vertex="1"><mxGeometry x="10" y="100" width="160" height="70" as="geometry"/></mxCell><mxCell id="15" value="" style="html=1;labelBackgroundColor=#ffffff;startArrow=none;startFill=0;startSize=6;endArrow=classic;endFill=1;endSize=6;jettySize=auto;orthogonalLoop=1;strokeWidth=1;dashed=1;fontSize=14;exitX=0.5;exitY=0;exitDx=0;exitDy=0;entryX=0.692;entryY=1;entryDx=0;entryDy=0;entryPerimeter=0;" parent="1" source="11" target="4" edge="1"><mxGeometry width="60" height="60" relative="1" as="geometry"><mxPoint x="-690" y="290" as="sourcePoint"/><mxPoint x="-630" y="230" as="targetPoint"/></mxGeometry></mxCell><mxCell id="18" value="&amp;lt;Interface&amp;gt;&lt;br&gt;DisplayElement" style="swimlane;whiteSpace=wrap;html=1;startSize=30;strokeColor=#FFFFFF;fillColor=default;fontColor=#ffffff;gradientColor=none;" parent="1" vertex="1"><mxGeometry x="-300" y="140" width="123" height="70" as="geometry"><mxRectangle x="40" y="170" width="140" height="30" as="alternateBounds"/></mxGeometry></mxCell><mxCell id="19" value="display()" style="text;html=1;align=left;verticalAlign=middle;resizable=0;points=[];autosize=1;strokeColor=none;fillColor=none;" parent="18" vertex="1"><mxGeometry x="10" y="30" width="70" height="30" as="geometry"/></mxCell><mxCell id="20" value="composition" style="text;html=1;align=center;verticalAlign=middle;resizable=0;points=[];autosize=1;strokeColor=none;fillColor=none;startSize=31;" parent="1" vertex="1"><mxGeometry x="-595" y="175" width="90" height="30" as="geometry"/></mxCell><mxCell id="26" style="edgeStyle=none;html=1;exitX=0;exitY=0.5;exitDx=0;exitDy=0;startSize=31;" parent="1" source="21" edge="1"><mxGeometry relative="1" as="geometry"><mxPoint x="-629.9999999999999" y="339.79310344827593" as="targetPoint"/></mxGeometry></mxCell><mxCell id="21" value="CurrentConditionsDisplay" style="swimlane;whiteSpace=wrap;html=1;strokeColor=#FFFFFF;startSize=31;fillColor=default;gradientColor=none;" parent="1" vertex="1"><mxGeometry x="-550" y="290" width="180" height="100" as="geometry"/></mxCell><mxCell id="28" value="update()&lt;br&gt;display(){//display &lt;br&gt;current measurements}" style="text;html=1;align=left;verticalAlign=middle;resizable=0;points=[];autosize=1;strokeColor=none;fillColor=none;" parent="21" vertex="1"><mxGeometry x="10" y="30" width="150" height="60" as="geometry"/></mxCell><mxCell id="23" value="" style="html=1;labelBackgroundColor=#ffffff;startArrow=none;startFill=0;startSize=6;endArrow=classic;endFill=1;endSize=6;jettySize=auto;orthogonalLoop=1;strokeWidth=1;dashed=1;fontSize=14;exitX=0.5;exitY=0;exitDx=0;exitDy=0;entryX=0.5;entryY=1;entryDx=0;entryDy=0;" parent="1" source="21" target="6" edge="1"><mxGeometry width="60" height="60" relative="1" as="geometry"><mxPoint x="-560" y="330" as="sourcePoint"/><mxPoint x="-500" y="270" as="targetPoint"/></mxGeometry></mxCell><mxCell id="24" value="" style="html=1;labelBackgroundColor=#ffffff;startArrow=none;startFill=0;startSize=6;endArrow=classic;endFill=1;endSize=6;jettySize=auto;orthogonalLoop=1;strokeWidth=1;dashed=1;fontSize=14;exitX=0.75;exitY=0;exitDx=0;exitDy=0;entryX=0.25;entryY=1;entryDx=0;entryDy=0;" parent="1" source="21" target="18" edge="1"><mxGeometry width="60" height="60" relative="1" as="geometry"><mxPoint x="-560" y="330" as="sourcePoint"/><mxPoint x="-500" y="270" as="targetPoint"/></mxGeometry></mxCell><mxCell id="27" value="Subject" style="text;html=1;align=center;verticalAlign=middle;resizable=0;points=[];autosize=1;strokeColor=none;fillColor=none;" parent="1" vertex="1"><mxGeometry x="-630" y="305" width="60" height="30" as="geometry"/></mxCell><mxCell id="32" style="edgeStyle=orthogonalEdgeStyle;html=1;exitX=0.5;exitY=0;exitDx=0;exitDy=0;entryX=1;entryY=0.5;entryDx=0;entryDy=0;startSize=31;dashed=1;" parent="1" source="29" target="6" edge="1"><mxGeometry relative="1" as="geometry"><Array as="points"><mxPoint x="-320" y="450"/><mxPoint x="-320" y="175"/></Array></mxGeometry></mxCell><mxCell id="33" style="edgeStyle=orthogonalEdgeStyle;html=1;dashed=1;startSize=31;" parent="1" source="29" edge="1"><mxGeometry relative="1" as="geometry"><mxPoint x="-260" y="210" as="targetPoint"/></mxGeometry></mxCell><mxCell id="29" value="StaticsDisplay" style="swimlane;whiteSpace=wrap;html=1;strokeColor=#FFFFFF;startSize=31;fillColor=default;gradientColor=none;" parent="1" vertex="1"><mxGeometry x="-460" y="450" width="180" height="100" as="geometry"/></mxCell><mxCell id="30" value="update()&lt;br&gt;display(){//display &lt;br&gt;min/max measurements}" style="text;html=1;align=left;verticalAlign=middle;resizable=0;points=[];autosize=1;strokeColor=none;fillColor=none;" parent="29" vertex="1"><mxGeometry x="10" y="30" width="160" height="60" as="geometry"/></mxCell><mxCell id="36" style="edgeStyle=orthogonalEdgeStyle;html=1;entryX=1;entryY=0.5;entryDx=0;entryDy=0;dashed=1;startSize=31;" parent="1" source="34" target="6" edge="1"><mxGeometry relative="1" as="geometry"><Array as="points"><mxPoint x="-190" y="240"/><mxPoint x="-330" y="240"/><mxPoint x="-330" y="175"/></Array></mxGeometry></mxCell><mxCell id="37" style="edgeStyle=orthogonalEdgeStyle;html=1;dashed=1;startSize=31;" parent="1" source="34" edge="1"><mxGeometry relative="1" as="geometry"><mxPoint x="-220" y="210" as="targetPoint"/></mxGeometry></mxCell><mxCell id="34" value="ThirdPartDisplay" style="swimlane;whiteSpace=wrap;html=1;strokeColor=#FFFFFF;startSize=31;fillColor=default;gradientColor=none;" parent="1" vertex="1"><mxGeometry x="-240" y="450" width="180" height="100" as="geometry"/></mxCell><mxCell id="35" value="update()&lt;br&gt;display(){//display &lt;br&gt;something else depends on&lt;br&gt;&amp;nbsp;measurements}" style="text;html=1;align=left;verticalAlign=middle;resizable=0;points=[];autosize=1;strokeColor=none;fillColor=none;" parent="34" vertex="1"><mxGeometry x="10" y="25" width="170" height="70" as="geometry"/></mxCell></root></mxGraphModel></diagram></mxfile>